<svg xmlns="http://www.w3.org/2000/svg" xml:space="preserve" width="80" height="80" style="shape-rendering:geometricPrecision;text-rendering:geometricPrecision;image-rendering:optimizeQuality;fill-rule:evenodd;clip-rule:evenodd" viewBox="0 0 248.54 250.51">
  <path d="M57.21 112.3 32.37 97.96 7.52 112.3l24.84 14.35 24.85-14.35zm108.15 123.27v-38.29h4.56V58.78H122.51v50.95l28.57 16.5.03.02.02.01h.01l.01.01.02.01.01.01.01.01h.01l.02.01.02.01v.01l.01.01.02.01.01.01h.01l.01.01.02.01.01.01.01.01h.01l.02.02.01.01h.01l.01.01.02.01.01.02h.01l.01.01.01.01.02.02.01.01.02.01.02.02.01.01.02.01.01.02.02.01.01.02.02.01.01.02.02.01.01.02.01.01.02.02.01.01.02.02.01.01.01.02.02.01.01.02.01.01.01.01.01.01.01.02.01.01.02.02.01.02.01.01.01.02.02.02.01.02.01.01.01.02.02.02.01.02.01.01.01.02.01.02.01.02.02.02.01.02.01.01.01.02.01.02.01.02.01.02.01.02.01.02.01.01v.01l.01.01.01.02.01.02v.02l.01.02.01.02.01.02.01.02v.02h.01v.01l.01.02.01.02v.01l.01.01v.02l.01.02v.01l.01.01v.02l.01.02v.01l.01.01v.02l.01.02v.02l.01.02.01.02v.02l.01.02v.03h.01v.04l.01.02v.02l.01.02v.02l.01.02v.04l.01.02v.06l.01.02v.06l.01.02v.14l.01.02V162.91c0 .97-.55 1.81-1.35 2.23l-28.49 16.45v33.04c-.01.87-.45 1.71-1.26 2.17l-57.65 33.28-.01.02-.02.01h-.01l-.01.01-.02.01-.02.02-.02.01-.02.01-.01.01h-.01l-.02.01-.02.01-.01.01h-.01l-.02.01-.02.01-.02.01-.02.01-.01.01h-.01l-.02.01-.02.01-.01.01h-.01l-.02.01-.02.01h-.01l-.02.01-.02.01-.01.01h-.01l-.02.01h-.02l-.01.01h-.01l-.02.01-.03.01h-.02l-.02.01-.02.01-.02.01h-.04l-.01.01h-.02l-.02.01h-.01l-.01.01h-.03l-.02.01h-.02l-.03.01h-.04l-.02.01h-.03l-.02.01h-.05l-.02.01h-.05l-.02.01h-.1l-.02.01H62.08l-.02-.01h-.1l-.02-.01h-.05l-.02-.01h-.05l-.02-.01h-.02l-.03-.01h-.04l-.03-.01h-.02l-.02-.01h-.02l-.02-.01h-.01l-.02-.01h-.02l-.01-.01h-.04l-.02-.01-.02-.01-.02-.01h-.02l-.02-.01-.03-.01h-.01l-.01-.01h-.02l-.02-.01h-.01l-.01-.01-.02-.01-.02-.01-.03-.01-.02-.01h-.01l-.01-.01-.02-.01-.02-.01-.02-.01-.02-.01-.02-.01-.02-.01-.02-.01h-.01l-.01-.01-.02-.01-.02-.01h-.01l-.01-.01-.02-.01-.02-.01-.02-.02-.02-.01-.01-.01h-.01l-.01-.01-.02-.02h-.01c-19.85-11.46-39.71-22.92-59.56-34.38A2.509 2.509 0 0 1 0 213.53V112.32c0-.58.2-1.12.53-1.54v-.01l.03-.04.01-.01.03-.04h.01c.18-.22.4-.41.66-.56l29.86-17.24a2.5 2.5 0 0 1 2.47 0l29.79 17.2c.41.21.76.54 1.01.97.23.39.34.83.34 1.25v62.39l22.94-13.25v-32.8c-.08-.94.37-1.89 1.24-2.39l28.61-16.52V58.78h-41.9L87.9 46.85a7.196 7.196 0 0 1 5.85-3.01h76.17L200.07 0h7.76v43.84h36.26c2.46 0 4.45 2 4.45 4.46v6.02c0 2.46-1.99 4.46-4.45 4.46h-36.26v138.5h4.56v38.29h31.7c2.46 0 4.45 1.99 4.45 4.45v10.48H129.21v-10.48c0-2.46 2-4.45 4.45-4.45h31.7zM34.88 191.93l24.83-14.34v-60.94l-24.83 14.34v60.94zm57.76-30.49 24.89 14.38v-28.69l-24.9-14.37.01 28.68zm-55.26 34.84 24.85 14.34 52.78-30.47-24.85-14.34c-17.6 10.15-35.19 20.31-52.78 30.47zm22.33 18.67-28.39-16.39h-.01c-.86-.4-1.46-1.27-1.46-2.28v-65.29L5.01 116.65v95.43c18.23 10.53 36.47 21.04 54.7 31.57v-28.7zm62.8-39.13 24.88-14.37v-28.69l-24.88 14.37v28.69zm-57.77 39.13v28.7l52.76-30.46v-28.7l-52.76 30.46zm55.28-72.17 24.85-14.35-24.85-14.35-24.85 14.35 24.85 14.35zm54.9 34.08-.01 20.41 27.94.01-27.93-20.42zm0-7.28L202.85 190l.01-40.84-27.94 20.42zm-.02-7.28 27.94-20.42-27.93-20.42-.01 40.84zm.01-48.12 27.94 20.42-.01-40.84-27.93 20.42zm-.01-7.28 27.94-20.42-27.93-20.42-.01 40.84zm.01-48.12 27.94 20.42-.01-20.42h-27.93zm1.37-14.94h26.56V5.22l-26.56 38.62z" style="fill:#ff2d20"/>
</svg>
