<?xml version="1.0" encoding="UTF-8" standalone="no"?>
<!DOCTYPE svg PUBLIC "-//W3C//DTD SVG 1.1//EN" "http://www.w3.org/Graphics/SVG/1.1/DTD/svg11.dtd">
<svg width="100%" height="100%" viewBox="0 0 40 40" version="1.1" xmlns="http://www.w3.org/2000/svg"
     xml:space="preserve"
     style="fill-rule:evenodd;clip-rule:evenodd;stroke-linejoin:round;stroke-miterlimit:2;">
    <g transform="matrix(0.0338158,0,0,0.0385178,1.97046,-0.422333)">
        <g transform="matrix(-0.607893,-0.917505,1.19027,-0.788615,269.594,1525.28)">
            <path d="M836.169,386.498C888.171,348.085 948.299,309.655 979.937,289.909C983.015,287.974 987.368,287.808 990.679,289.499C993.99,291.19 995.489,294.345 994.378,297.284C981.988,330.483 956.008,397.023 927.2,452.492C970.7,422.003 1015.01,393.821 1040.6,377.88C1043.68,375.95 1048.03,375.786 1051.34,377.476C1054.65,379.165 1056.14,382.316 1055.04,385.253C1044.04,414.842 1022.25,471.007 997.284,522.089C1033.17,499.252 1068.58,478.782 1089.68,466.859C1092.75,465.113 1096.9,465.03 1100.08,466.653C1103.26,468.276 1104.78,471.257 1103.89,474.113C1091.87,513.333 1061.36,606.358 1028.24,655.758C1026.15,659.459 1023.62,663.055 1020.66,666.5L763.39,965.552C746.794,984.843 718.903,996.568 688.876,996.876C658.849,997.184 630.563,986.035 613.308,967.09L203.137,516.768C181.647,493.175 181.107,461.842 201.775,437.817L459.041,138.766C475.637,119.474 503.528,107.749 533.555,107.442C563.583,107.134 591.868,118.283 609.124,137.228L836.169,386.498Z"
                  style="fill:rgb(103,105,106);"/>
        </g>
        <g transform="matrix(1.10948,0,-0.195331,1.10948,-313.638,331.971)">
            <path d="M1100.41,369.451L1015.14,369.451L1133.93,-193.856L1006.88,-193.856L826.097,262.358L837.182,-193.856L626.556,-193.856L598.29,-80.943L683.564,-80.943L567.717,483.217L652.138,483.217L751.056,13.359L751.909,483.217L813.306,483.217L1005.17,13.359L906.254,483.217L1075.95,483.217L1100.41,369.451Z"
                  style="fill:rgb(59,157,231);fill-rule:nonzero;"/>
        </g>
    </g>
</svg>
